<svg width="90" height="90" viewBox="0 0 90 90" fill="none" xmlns="http://www.w3.org/2000/svg">
  <g filter="url(#shadow)" transform="rotate(-24 45 45)">
    <path d="M66.2 29.4C62.5 25.7 57.3 24.5 52.6 25.8L60.2 33.4L53.4 40.2L45.8 32.6C44.5 37.3 45.7 42.5 49.4 46.2C53.3 50.1 59 51.1 63.8 49.2L75.5 60.9C77.2 62.6 80 62.6 81.7 60.9C83.4 59.2 83.4 56.4 81.7 54.7L70 43C71.9 38.2 70.1 33.3 66.2 29.4Z" fill="#B8BFCB"/>
    <path d="M66.2 29.4C62.5 25.7 57.3 24.5 52.6 25.8L60.2 33.4L53.4 40.2L45.8 32.6C44.5 37.3 45.7 42.5 49.4 46.2C53.3 50.1 59 51.1 63.8 49.2L75.5 60.9C77.2 62.6 80 62.6 81.7 60.9C83.4 59.2 83.4 56.4 81.7 54.7L70 43C71.9 38.2 70.1 33.3 66.2 29.4Z" stroke="#1C2B4A" stroke-width="2.2" stroke-linejoin="round"/>
    <circle cx="78.4" cy="57.8" r="1.8" fill="#1C2B4A"/>
  </g>
  <defs>
    <filter id="shadow" x="36" y="20" width="52" height="52" filterUnits="userSpaceOnUse" color-interpolation-filters="sRGB">
      <feDropShadow dx="0" dy="5" stdDeviation="3" flood-color="#1C2B4A" flood-opacity="0.18"/>
    </filter>
  </defs>
</svg>
