<svg width="90" height="90" viewBox="0 0 90 90" fill="none" xmlns="http://www.w3.org/2000/svg">
  <g filter="url(#shadow)">
    <path d="M22 31.8C22 27.5 25.5 24 29.8 24H66.5C67.3 24 68 24.7 68 25.5V64.5C68 65.3 67.3 66 66.5 66H29.8C25.5 66 22 62.5 22 58.2V31.8Z" fill="#FFD19A"/>
    <path d="M22 31.8C22 27.5 25.5 24 29.8 24H66.5C67.3 24 68 24.7 68 25.5V64.5C68 65.3 67.3 66 66.5 66H29.8C25.5 66 22 62.5 22 58.2V31.8Z" stroke="#E7B46F" stroke-width="1.4"/>
    <circle cx="31.5" cy="45" r="4.5" fill="#1C2B4A"/>
    <circle cx="31.5" cy="45" r="2.2" fill="#FFE3BA"/>
  </g>
  <defs>
    <filter id="shadow" x="16" y="20" width="58" height="56" filterUnits="userSpaceOnUse" color-interpolation-filters="sRGB">
      <feDropShadow dx="0" dy="4" stdDeviation="3" flood-color="#07122B" flood-opacity="0.16"/>
    </filter>
  </defs>
</svg>
